# xmcd
#
# Track frame offsets: 
#        150
#        11033
#        27216
#        38761
#        49640
#        64080
#        79949
#        91639
#        106673
#        124865
#        137710
#        151981
#        166583
#        183299
#        200898
#        220481
#        235856
#        257725
#        271276
#        286853
#        303619
#        318889
#
# Disc length: 4458 seconds
#
# Revision: 0
# Processed by: cddbd v1.5.2PL0 Copyright (c) Steve Scherf et al.
# Submitted via: ExactAudioCopy v0.99pb5
#
DISCID=28116816
DTITLE=Rabbitt, Eddie - Greatest Hits Vol I and II [Eddie Rabbitt] [J-te
DTITLE=l]
DYEAR=2010
DGENRE=Country Classic
TTITLE0=Drinkin' My Baby (Off My Mind)
TTITLE1=Rocky Mountain Music
TTITLE2=Do You Right Tonight
TTITLE3=Two Dollars in the Jukebox
TTITLE4=I Can't Help Myself
TTITLE5=We Can't Go On Living Like This
TTITLE6=Hearts on Fire
TTITLE7=You Don't Love Me Anymore
TTITLE8=I Just Want to Love You
TTITLE9=Every Which Way But Loose
TTITLE10=I Love a Rainy Night
TTITLE11=Drivin' My Life Away
TTITLE12=Step by Step
TTITLE13=You and I [with Crystal Gayle]
TTITLE14=Suspicions
TTITLE15=Pour Me Another Tequila [*]
TTITLE16=You Put the Beat in My Heart
TTITLE17=Nothing Like Falling in Love
TTITLE18=Someone Could Lose a Heart Tonight
TTITLE19=You Can't Run From Love
TTITLE20=Gone Too Far
TTITLE21=I Don't Know Where to Start [*]
EXTD=
EXTT0=
EXTT1=
EXTT2=
EXTT3=
EXTT4=
EXTT5=
EXTT6=
EXTT7=
EXTT8=
EXTT9=
EXTT10=
EXTT11=
EXTT12=
EXTT13=
EXTT14=
EXTT15=
EXTT16=
EXTT17=
EXTT18=
EXTT19=
EXTT20=
EXTT21=
PLAYORDER=
